<svg width="20" height="20" viewBox="0 0 20 20" fill="none" xmlns="http://www.w3.org/2000/svg">
<path d="M9.99998 0C4.4861 0 0 4.4861 0 9.99998C0 15.5139 4.4861 20 9.99998 20C15.5139 20 20 15.5139 20 9.99998C20 4.4861 15.5139 0 9.99998 0ZM9.99998 18.2609C5.4452 18.2609 1.7391 14.5548 1.7391 9.99998C1.7391 5.4452 5.4452 1.73914 9.99998 1.73914C14.5548 1.73914 18.2609 5.4452 18.2609 9.99998C18.2609 14.5548 14.5548 18.2609 9.99998 18.2609Z" fill="white"/>
<path d="M14.6547 5.34524C14.5287 5.21827 14.3382 5.18175 14.1756 5.25308L8.08866 7.86178C7.98606 7.90527 7.9043 7.98785 7.85995 8.09049L5.25126 14.1774C5.18082 14.3409 5.21734 14.5305 5.34342 14.6566C5.42689 14.7383 5.53821 14.7827 5.65124 14.7827C5.70863 14.7827 5.76688 14.7705 5.82256 14.7479L11.9095 12.1392C12.0121 12.0948 12.0939 12.0131 12.1382 11.9105L14.7469 5.82353C14.8165 5.66004 14.78 5.47046 14.6547 5.34524ZM9.99908 10.8696C9.51994 10.8696 9.12953 10.4792 9.12953 10.0001C9.12953 9.52091 9.51998 9.1305 9.99908 9.1305C10.4782 9.1305 10.8686 9.52095 10.8686 10.0001C10.8687 10.4792 10.4782 10.8696 9.99908 10.8696Z" fill="white"/>
</svg>
