<svg width="16" height="14" viewBox="0 0 16 14" fill="none" xmlns="http://www.w3.org/2000/svg">
<path d="M6.01707 12.6061C5.53898 12.6061 5.62479 12.4222 5.45317 11.9687L4.05566 7.35933L12.7349 1.94092L13.7524 2.21061L12.9065 4.51528L6.01707 12.6061Z" fill="#DBDBDB"/>
<path d="M6.01514 12.606C6.3829 12.606 6.54227 12.4344 6.75067 12.2382C7.0694 11.9317 11.1639 7.94765 11.1639 7.94765L8.65079 7.33472L6.32161 8.80577L6.01514 12.4834V12.606Z" fill="#DBDBDB"/>
<path d="M6.26105 8.8549L12.1943 13.2313C12.8686 13.5991 13.3589 13.4152 13.5306 12.6061L15.9456 1.22987C16.1907 0.236899 15.5655 -0.20442 14.9158 0.0897933L0.744555 5.55726C-0.223896 5.94955 -0.211637 6.48894 0.572931 6.72186L4.21382 7.86193L12.6357 2.55383C13.0279 2.30865 13.3957 2.4435 13.1015 2.7132L6.26105 8.8549Z" fill="white"/>
</svg>
