<svg width="151" height="20" viewBox="0 0 151 20" fill="none" xmlns="http://www.w3.org/2000/svg">
<path d="M140.933 5.27624H134.755C133.713 5.34567 133.436 5.58865 133.436 6.83831V10.3096H140.933V5.27624ZM144.196 2.49923V17.6339H140.933V13.2601H133.436V17.5992H130.138V5.76222C130.138 3.67946 130.971 2.49923 133.436 2.49923H144.196ZM126.84 5.76222V13.9544C126.84 16.5578 125.382 17.6339 123.542 17.6339H113.163V2.49923H123.577C126.354 2.49923 126.84 4.26957 126.84 5.76222ZM123.508 6.66475C123.508 5.83164 122.987 5.27624 122.119 5.27624H116.461V14.7181H122.119C123.404 14.6487 123.508 13.885 123.508 13.2601V6.66475ZM46.2026 2.49923H49.5003V8.4698H56.8594V2.49923H60.1571V17.5992H56.8594V11.4204H49.5003V17.5992H46.2026V2.49923ZM65.7806 2.49923L69.8767 8.67808L73.938 2.49923H77.93L71.5429 12.1493V17.5992H68.2452V12.1493L61.7886 2.49923H65.7806ZM96.3971 2.49923H106.984C108.477 2.49923 109.97 2.7075 109.9 5.76222V17.5992H106.603V6.83831C106.603 5.55394 106.464 5.27624 105.422 5.27624H99.6601V17.6339H96.3624V2.49923H96.3971ZM150.792 17.5992H147.494V2.49923H150.792V17.5992ZM79.5962 17.5992H90.1836C92.301 17.5992 93.1689 16.9744 93.0994 13.9544V2.49923H89.8017V13.2949C89.8017 14.5792 89.6282 14.7528 88.6215 14.7528H82.8592V2.49923H79.5615V17.5992H79.5962ZM32.873 3.36704C31.9357 2.88107 30.9291 2.46452 29.9224 2.08268C25.3751 0.520608 20.0293 -0.0347942 14.9613 0.590033C10.2751 1.24957 5.7277 2.36038 2.18701 5.58865C0.486092 7.18544 -0.520574 9.54589 0.312529 11.8369C1.38862 14.6139 4.26977 16.4537 6.87322 17.5298C14.51 20.6192 24.9238 20.5151 32.3176 16.9744C34.8516 15.69 37.698 13.5726 38.0452 10.5178C38.3229 7.22015 35.4417 4.75555 32.873 3.36704ZM15.7597 4.68613C16.3845 3.43647 17.53 1.97854 19.0921 1.94383C22.4939 1.90911 25.6528 2.4298 28.7075 3.26291C28.881 3.36704 29.0893 3.40176 29.2282 3.57532C29.3323 3.7836 29.124 3.92245 29.0199 4.0613C26.5206 6.00521 23.6741 7.11601 20.7236 8.05325C19.2309 8.40038 17.7383 9.05992 16.0721 8.71279C15.6902 8.60865 15.3431 8.36567 15.1348 7.98383C14.7183 6.83831 15.2737 5.65808 15.7597 4.68613ZM5.65828 14.8569C5.27644 15.2041 4.8946 14.7528 4.54747 14.5792C2.77713 13.399 1.18035 11.5245 1.63161 9.30291C2.36058 6.42176 5.34586 4.85969 7.84517 3.81831C9.3031 3.26291 10.8652 2.81164 12.462 2.56865C12.6355 2.56865 12.8438 2.53394 12.9479 2.7075L12.9132 2.88107C9.71966 6.49118 7.6369 10.6914 5.65828 14.8569ZM21.8691 16.2454C21.1401 17.3562 19.9599 18.3282 18.502 18.1893C15.2737 18.1546 12.1148 17.6339 9.19897 16.7661C9.06012 16.7314 8.92126 16.662 8.85184 16.5231C8.78241 16.3496 8.88655 16.2107 8.99069 16.0719C11.6636 13.9197 14.8224 12.913 17.9813 11.8716C19.1615 11.5245 20.4111 11.1774 21.7302 11.351C22.2856 11.3857 22.8063 11.7675 23.0146 12.2882C23.2923 13.7808 22.5286 15.0305 21.8691 16.2454ZM36.4137 10.8303C35.65 13.8156 32.4217 15.4123 29.8183 16.419C28.3951 16.905 26.9718 17.391 25.4445 17.5298C25.3403 17.5298 25.2015 17.5298 25.1668 17.391L25.2015 17.2174C27.3884 14.7528 29.0546 11.9758 30.5125 9.16406C31.1721 7.87969 31.8316 6.59532 32.387 5.31095C32.4564 5.20682 32.5606 5.1721 32.6647 5.13739C33.1854 5.1721 33.5672 5.58865 34.0185 5.90107C35.5112 7.11601 36.8649 8.81693 36.4137 10.8303Z" fill="#003469" stroke="#003469" stroke-width="0.3"/>
</svg>
