<svg width="20" height="20" viewBox="0 0 20 20" fill="none" xmlns="http://www.w3.org/2000/svg">
<path fill-rule="evenodd" clip-rule="evenodd" d="M16.4806 13.4944C16.0041 13.1108 15.4949 12.7665 14.9937 12.4148C13.9941 11.7127 13.0798 11.6582 12.3339 12.7877C11.9151 13.4218 11.3287 13.4496 10.7156 13.1714C9.02534 12.405 7.72015 11.2241 6.95562 9.50618C6.61742 8.7461 6.62188 8.06465 7.41316 7.52707C7.8321 7.24277 8.25417 6.90637 8.22042 6.28515C8.17636 5.47515 6.20969 2.76823 5.43305 2.48253C5.11169 2.36429 4.79165 2.37198 4.4647 2.48187C2.64361 3.09429 1.88932 4.59199 2.6117 6.36535C4.76677 11.6561 8.55933 15.3393 13.78 17.5873C14.0777 17.7153 14.4083 17.7665 14.5757 17.8124C15.7643 17.8244 17.1567 16.6792 17.5588 15.5428C17.946 14.4494 17.1278 14.0154 16.4806 13.4944ZM10.6269 3.02495C14.4436 3.61187 16.2037 5.42672 16.6898 9.27086C16.7348 9.62594 16.6026 10.1602 17.1092 10.1701C17.6386 10.1802 17.5111 9.65379 17.5155 9.29836C17.5603 5.67789 14.4034 2.32155 10.7373 2.1978C10.4606 2.23761 9.88831 2.00706 9.8526 2.62702C9.82882 3.04499 10.3107 2.97632 10.6269 3.02495Z" fill="white"/>
<path fill-rule="evenodd" clip-rule="evenodd" d="M11.3732 4.07895C11.0061 4.03473 10.5214 3.86176 10.4357 4.37114C10.3461 4.90579 10.8862 4.85149 11.2333 4.92918C13.5906 5.45602 14.4114 6.31399 14.7995 8.65228C14.8562 8.99318 14.7436 9.52377 15.3229 9.43584C15.7523 9.37045 15.5972 8.91564 15.6331 8.64998C15.6521 6.40505 13.7284 4.36176 11.3732 4.07895Z" fill="white"/>
<path fill-rule="evenodd" clip-rule="evenodd" d="M11.5898 5.9147C11.3448 5.92076 11.1042 5.94728 11.0142 6.20916C10.8789 6.60056 11.1635 6.69388 11.4531 6.74041C12.4201 6.89564 12.929 7.46584 13.0256 8.43013C13.0517 8.69185 13.2178 8.90392 13.4706 8.87408C13.821 8.83228 13.8527 8.52045 13.8419 8.22431C13.8592 7.14095 12.6347 5.88877 11.5898 5.9147Z" fill="white"/>
</svg>
