<svg width="20" height="20" viewBox="0 0 20 20" fill="none" xmlns="http://www.w3.org/2000/svg">
<g clip-path="url(#clip0)">
<path fill-rule="evenodd" clip-rule="evenodd" d="M7.54741 5.70276C7.364 5.29497 7.17089 5.28681 6.99639 5.27968C6.85367 5.27355 6.69028 5.27393 6.52714 5.27393C6.36388 5.27393 6.09858 5.33528 5.87422 5.58031C5.64973 5.82534 5.01709 6.41767 5.01709 7.62237C5.01709 8.82721 5.89463 9.99135 6.01695 10.1549C6.13939 10.3181 7.71093 12.8694 10.1998 13.8509C12.2683 14.6665 12.6892 14.5043 13.1382 14.4635C13.5871 14.4227 14.5869 13.8713 14.7909 13.2995C14.995 12.7278 14.995 12.2377 14.9338 12.1353C14.8726 12.0333 14.7093 11.972 14.4644 11.8496C14.2195 11.7272 13.0157 11.1347 12.7912 11.0531C12.5667 10.9714 12.4035 10.9306 12.2402 11.1758C12.0769 11.4207 11.6079 11.972 11.4651 12.1353C11.3222 12.2989 11.1794 12.3194 10.9345 12.1969C10.6896 12.0741 9.90094 11.8158 8.96538 10.9816C8.23746 10.3326 7.746 9.53111 7.60315 9.28597C7.46029 9.04108 7.58783 8.90843 7.71067 8.78636C7.82061 8.67666 7.95557 8.50052 8.07801 8.35753C8.2002 8.21454 8.24101 8.1125 8.32265 7.94924C8.40428 7.78572 8.36346 7.64275 8.30224 7.5203C8.24101 7.39785 7.76514 6.18693 7.54741 5.70276Z" fill="white"/>
<path d="M16.9297 2.87501C15.0793 1.02338 12.6189 0.00311229 9.99751 0.00195312C4.59567 0.00195312 0.199674 4.39654 0.197503 9.79813C0.196866 11.5248 0.648011 13.2102 1.50552 14.6959L0.115234 19.7724L5.31032 18.4101C6.74168 19.1907 8.35327 19.6021 9.99329 19.6027H9.99746H9.99751C15.3984 19.6027 19.7951 15.2074 19.7974 9.80603C19.7983 7.18822 18.7798 4.72678 16.9297 2.87501ZM9.99751 17.9482H9.99432C8.53248 17.9474 7.09895 17.5549 5.84858 16.813L5.551 16.6366L2.46813 17.4449L3.29121 14.4402L3.09733 14.1321C2.28192 12.8356 1.85144 11.3373 1.85208 9.79878C1.85386 5.30917 5.50764 1.65666 10.0006 1.65666C12.1763 1.65756 14.2212 2.50563 15.7592 4.04465C17.297 5.58366 18.1433 7.62955 18.1427 9.80542C18.1408 14.2951 14.4869 17.9482 9.99751 17.9482Z" fill="white"/>
</g>
<defs>
<clipPath id="clip0">
<rect width="19.912" height="20" fill="white"/>
</clipPath>
</defs>
</svg>
